<svg xmlns="http://www.w3.org/2000/svg" version="1.1" xmlns:xlink="http://www.w3.org/1999/xlink" xmlns:svgjs="http://svgjs.com/svgjs" width="1440" height="250" preserveAspectRatio="none" viewBox="0 0 1440 250"><g mask="url(&quot;#SvgjsMask1000&quot;)" fill="none"><rect width="1440" height="250" x="0" y="0" fill="#0e2a47"></rect><path d="M1 250L251 0L317 0L67 250z" fill="url(#SvgjsLinearGradient1001)"></path><path d="M271.6 250L521.6 0L668.6 0L418.6 250z" fill="url(#SvgjsLinearGradient1001)"></path><path d="M507.20000000000005 250L757.2 0L1112.7 0L862.7 250z" fill="url(#SvgjsLinearGradient1001)"></path><path d="M758.8000000000001 250L1008.8000000000001 0L1137.8000000000002 0L887.8000000000001 250z" fill="url(#SvgjsLinearGradient1001)"></path><path d="M1395 250L1145 0L990.5 0L1240.5 250z" fill="url(#SvgjsLinearGradient1002)"></path><path d="M1195.4 250L945.4000000000001 0L606.4000000000001 0L856.4000000000001 250z" fill="url(#SvgjsLinearGradient1002)"></path><path d="M937.8 250L687.8 0L516.8 0L766.8 250z" fill="url(#SvgjsLinearGradient1002)"></path><path d="M725.1999999999999 250L475.19999999999993 0L314.69999999999993 0L564.6999999999999 250z" fill="url(#SvgjsLinearGradient1002)"></path><path d="M1281.6055569266625 250L1440 91.60555692666247L1440 250z" fill="url(#SvgjsLinearGradient1001)"></path><path d="M0 250L158.39444307333753 250L 0 91.60555692666247z" fill="url(#SvgjsLinearGradient1002)"></path></g><defs><mask id="SvgjsMask1000"><rect width="1440" height="250" fill="#ffffff"></rect></mask><linearGradient x1="0%" y1="100%" x2="100%" y2="0%" id="SvgjsLinearGradient1001"><stop stop-color="rgba(15, 70, 185, 0.2)" offset="0"></stop><stop stop-opacity="0" stop-color="rgba(15, 70, 185, 0.2)" offset="0.66"></stop></linearGradient><linearGradient x1="100%" y1="100%" x2="0%" y2="0%" id="SvgjsLinearGradient1002"><stop stop-color="rgba(15, 70, 185, 0.2)" offset="0"></stop><stop stop-opacity="0" stop-color="rgba(15, 70, 185, 0.2)" offset="0.66"></stop></linearGradient></defs></svg>